<svg width="222" height="36" viewBox="0 0 222 36" fill="none" xmlns="http://www.w3.org/2000/svg">
<path d="M0 28.1353L29.5279 26.6622C29.5279 26.2766 29.5473 25.8965 29.5556 25.5165C11.0522 27.0256 0 28.1353 0 28.1353Z" fill="#FF7622"/>
<path d="M222 17.0582C206.448 17.0193 190.791 17.2191 175.395 17.5908V19.3856L222 17.0582Z" fill="#FF7622"/>
<path d="M29.3032 33.1121H39.7783V26.1545L29.514 26.6678C29.4678 28.7557 29.3975 30.9038 29.3032 33.1121Z" fill="#FF7622"/>
<path d="M39.7838 22.0599C41.0544 22.0285 42.9334 22.0137 45.4209 22.0155C51.3964 22.0155 57.0778 22.1191 62.4652 22.3262V13.6265C57.0778 13.8115 51.781 13.904 46.5749 13.904C43.5567 13.904 41.293 13.8892 39.7838 13.8596V9.18793H63.9188V0.887722H29.3032C29.5399 6.62093 29.6583 11.9917 29.6583 16.9999C29.6583 19.7296 29.6222 22.5704 29.5501 25.522C32.7422 25.2613 36.1516 24.9894 39.7783 24.7064L39.7838 22.0599Z" fill="#FF7622"/>
<path d="M94.0209 0.887722H77.6896L69.3284 22.562C79.3846 21.8879 90.2315 21.211 101.672 20.5785L94.0209 0.887722ZM81.1517 19.8406C83.1639 14.3959 84.6878 10.3272 85.7235 7.63442L86.786 10.5195C87.9715 13.6265 89.1264 16.7336 90.2509 19.8406H81.1517Z" fill="#FF7622"/>
<path d="M65.2616 33.1121H76.4025L78.6218 26.7648H92.7699C93.7168 29.3097 94.4713 31.4254 95.0336 33.1121H106.53L102.607 23.017L68.4851 24.7231L65.2616 33.1121Z" fill="#FF7622"/>
<path d="M135.566 23.7521C135.566 24.2885 135.063 24.7832 134.057 25.2363C133.051 25.6894 131.32 25.916 128.864 25.916C126.239 25.8852 123.629 25.5208 121.096 24.8313C118.908 24.2816 116.795 23.4664 114.805 22.4039L113.548 22.4677C113.054 23.8839 112.486 25.2729 111.845 26.6289C111.095 28.1659 110.261 29.6606 109.348 31.1064C112.24 32.6478 115.331 33.782 118.533 34.4769C121.82 35.2316 125.181 35.6168 128.553 35.6254C134.679 35.6254 139.25 34.66 142.269 32.7292C145.287 30.7984 146.797 27.6322 146.799 23.2306C146.803 22.4175 146.693 21.6078 146.471 20.8254L133.178 21.4884C134.77 21.9674 135.566 22.722 135.566 23.7521Z" fill="#FF7622"/>
<path d="M142.535 16.2342C139.694 14.7103 135.137 13.9483 128.864 13.9483C126.321 13.9483 124.379 13.7209 123.038 13.2659C121.698 12.811 121.025 12.2062 121.022 11.4516C121.022 10.6971 121.51 10.1256 122.484 9.73167C123.457 9.33774 125.355 9.14355 128.168 9.14355C130.504 9.14355 133.196 9.57539 136.246 10.4391C139.296 11.3027 141.573 12.3782 143.079 13.6654C143.197 13.3528 143.345 12.8822 143.523 12.2534C144.471 9.26838 145.375 6.7393 146.233 4.66609C143.468 3.15719 140.521 2.0086 137.464 1.24836C134.37 0.435099 131.186 0.0156626 127.987 0C122.693 0 118.387 1.00517 115.071 3.01549C111.755 5.02581 110.098 8.15226 110.1 12.3948C110.1 15.3798 111.461 17.5399 114.183 18.8752C114.985 19.2562 115.821 19.5618 116.68 19.7879C125.96 19.3274 135.544 18.9002 145.331 18.5284C144.576 17.5705 143.622 16.7878 142.535 16.2342Z" fill="#FF7622"/>
<path d="M164.287 19.9405V33.1121H175.383V19.3856L164.287 19.9405Z" fill="#FF7622"/>
<path d="M175.384 9.94249C179.761 9.97024 184.274 10.0627 188.921 10.2199V0.898817H150.794V10.2199C155.378 10.0701 159.876 9.97763 164.287 9.94249V17.8876C167.967 17.7803 171.666 17.6814 175.384 17.5908V9.94249Z" fill="#FF7622"/>
</svg>
